<svg xmlns="http://www.w3.org/2000/svg" viewBox="0 0 800 600" width="800" height="600" role="img" aria-hidden="true"><rect width="800" height="600" fill="#ecc995"/><defs><pattern id="p" width="28" height="28" patternUnits="userSpaceOnUse"><circle cx="4" cy="4" r="2" fill="#8a5a14" opacity="0.07"/></pattern></defs><rect width="100%" height="100%" fill="url(#p)"/><ellipse cx="300" cy="435" rx="190" ry="30.400000000000002" fill="#000" opacity="0.14"/><path d="M110 416 Q100.5 245 300 235.5 Q499.5 245 490 416 Z" fill="#c27a2c"/><path d="M182.2 264 l45.6 57" stroke="#fff" stroke-opacity="0.45" stroke-width="9.5" stroke-linecap="round"/><path d="M277.2 264 l45.6 57" stroke="#fff" stroke-opacity="0.45" stroke-width="9.5" stroke-linecap="round"/><path d="M372.2 264 l45.6 57" stroke="#fff" stroke-opacity="0.45" stroke-width="9.5" stroke-linecap="round"/><ellipse cx="570" cy="480" rx="120" ry="19.2" fill="#000" opacity="0.14"/><path d="M450 468 Q444 360 570 354 Q696 360 690 468 Z" fill="#d99a46"/><path d="M495.6 372 l28.799999999999997 36" stroke="#fff" stroke-opacity="0.45" stroke-width="6" stroke-linecap="round"/><path d="M555.6 372 l28.799999999999997 36" stroke="#fff" stroke-opacity="0.45" stroke-width="6" stroke-linecap="round"/><path d="M615.6 372 l28.799999999999997 36" stroke="#fff" stroke-opacity="0.45" stroke-width="6" stroke-linecap="round"/><ellipse cx="150" cy="500" rx="50" ry="31" fill="#f5dcae"/><circle cx="180" cy="500" r="2.5" fill="#a56d1a" opacity="0.55"/><circle cx="140.3013129940949" cy="511.18557818265083" r="2.5" fill="#a56d1a" opacity="0.55"/><circle cx="126.2709686425675" cy="485.09463494549806" r="2.5" fill="#a56d1a" opacity="0.55"/><circle cx="175.04138354517477" cy="508.67659646582297" r="2.5" fill="#a56d1a" opacity="0.55"/><circle cx="157.53779527746767" cy="503.3433487115037" r="2.5" fill="#a56d1a" opacity="0.55"/><circle cx="120.08483531410864" cy="486.8682173796736" r="2.5" fill="#a56d1a" opacity="0.55"/><circle cx="161.80472599043668" cy="514.1554350416616" r="2.5" fill="#a56d1a" opacity="0.55"/><circle cx="172.28247518111013" cy="494.2689287422399" r="2.5" fill="#a56d1a" opacity="0.55"/><circle cx="123.78789050966759" cy="493.48151566892153" r="2.5" fill="#a56d1a" opacity="0.55"/><circle cx="144.6657278663064" cy="514.4172908675317" r="2.5" fill="#a56d1a" opacity="0.55"/><circle cx="179.66113854560007" cy="487.3066939373724" r="2.5" fill="#a56d1a" opacity="0.55"/><circle cx="136.15599886752273" cy="502.4972000530573" r="2.5" fill="#a56d1a" opacity="0.55"/><circle cx="129.29010371395276" cy="509.3656570312459" r="2.5" fill="#a56d1a" opacity="0.55"/><circle cx="177.23458793268586" cy="485.0225745400428" r="2.5" fill="#a56d1a" opacity="0.55"/></svg>