<svg xmlns="http://www.w3.org/2000/svg" viewBox="0 0 800 600" width="800" height="600" role="img" aria-hidden="true"><rect width="800" height="600" fill="#efe4cf"/><defs><pattern id="p" width="28" height="28" patternUnits="userSpaceOnUse"><circle cx="4" cy="4" r="2" fill="#a58b5a" opacity="0.07"/></pattern></defs><rect width="100%" height="100%" fill="url(#p)"/><ellipse cx="330" cy="483" rx="127.5" ry="20.400000000000002" fill="#000" opacity="0.14"/><path d="M211 474.5 Q185.5 313 270.5 236.5 L389.5 236.5 Q474.5 313 449 474.5 Z" fill="#f6efe0"/><path d="M265.4 236.5 Q330 190.6 394.6 236.5" fill="#f6efe0" stroke="#8b6b40" stroke-width="8.5"/><rect x="265.4" y="231.4" width="129.2" height="11.9" fill="#8b6b40"/><circle cx="330" cy="364" r="44.2" fill="#fff" opacity="0.28"/><ellipse cx="590" cy="468" rx="72" ry="11.52" fill="#000" opacity="0.14"/><rect x="530" y="294" width="120" height="168" rx="16.8" fill="#e8d7b4"/><rect x="522.8" y="266.4" width="134.4" height="31.200000000000003" rx="7.199999999999999" fill="#3b2a1a"/><rect x="549.2" y="354" width="81.60000000000001" height="74.4" rx="6" fill="#fff" opacity="0.8"/><ellipse cx="480" cy="500" rx="80" ry="49.6" fill="#f9f3e4"/><circle cx="528" cy="500" r="4" fill="#cdb98a" opacity="0.55"/><circle cx="464.48210079055184" cy="517.8969250922413" r="4" fill="#cdb98a" opacity="0.55"/><circle cx="442.033549828108" cy="476.15141591279684" r="4" fill="#cdb98a" opacity="0.55"/><circle cx="520.0662136722797" cy="513.8825543453167" r="4" fill="#cdb98a" opacity="0.55"/><circle cx="492.0604724439483" cy="505.34935793840594" r="4" fill="#cdb98a" opacity="0.55"/><circle cx="432.1357365025738" cy="478.9891478074777" r="4" fill="#cdb98a" opacity="0.55"/><circle cx="498.8875615846987" cy="522.6486960666585" r="4" fill="#cdb98a" opacity="0.55"/><circle cx="515.6519602897762" cy="490.83028598758386" r="4" fill="#cdb98a" opacity="0.55"/><circle cx="438.06062481546815" cy="489.5704250702745" r="4" fill="#cdb98a" opacity="0.55"/><circle cx="471.4651645860903" cy="523.0676653880508" r="4" fill="#cdb98a" opacity="0.55"/><circle cx="527.4578216729601" cy="479.6907102997959" r="4" fill="#cdb98a" opacity="0.55"/><circle cx="457.84959818803634" cy="503.9955200848917" r="4" fill="#cdb98a" opacity="0.55"/><circle cx="446.8641659423244" cy="514.9850512499935" r="4" fill="#cdb98a" opacity="0.55"/><circle cx="523.5753406922973" cy="476.0361192640685" r="4" fill="#cdb98a" opacity="0.55"/></svg>