<svg xmlns="http://www.w3.org/2000/svg" viewBox="0 0 800 600" width="800" height="600" role="img" aria-hidden="true"><rect width="800" height="600" fill="#cfe6f2"/><defs><pattern id="p" width="28" height="28" patternUnits="userSpaceOnUse"><circle cx="4" cy="4" r="2" fill="#4a7ea3" opacity="0.07"/></pattern></defs><rect width="100%" height="100%" fill="url(#p)"/><ellipse cx="260" cy="476" rx="84" ry="13.44" fill="#000" opacity="0.14"/><rect x="190" y="273" width="140" height="196" rx="19.6" fill="#e8f3fa"/><rect x="181.6" y="240.8" width="156.8" height="36.4" rx="8.4" fill="#4a7ea3"/><rect x="212.4" y="343" width="95.2" height="86.8" rx="7" fill="#fff" opacity="0.8"/><ellipse cx="540" cy="485" rx="112.5" ry="18" fill="#000" opacity="0.14"/><path d="M435 477.5 Q412.5 335 487.5 267.5 L592.5 267.5 Q667.5 335 645 477.5 Z" fill="#bcdcec"/><path d="M483 267.5 Q540 227 597 267.5" fill="#bcdcec" stroke="#4a7ea3" stroke-width="7.5"/><rect x="483" y="263" width="114" height="10.500000000000002" fill="#4a7ea3"/><circle cx="540" cy="380" r="39" fill="#fff" opacity="0.28"/><path d="M180 90 l0 30 M165 105 l30 0 M169 95 l22 20 M191 95 l-22 20" stroke="#fff" stroke-width="5" stroke-linecap="round"/><path d="M330 130 l0 30 M315 145 l30 0 M319 135 l22 20 M341 135 l-22 20" stroke="#fff" stroke-width="5" stroke-linecap="round"/><path d="M470 90 l0 30 M455 105 l30 0 M459 95 l22 20 M481 95 l-22 20" stroke="#fff" stroke-width="5" stroke-linecap="round"/><path d="M610 130 l0 30 M595 145 l30 0 M599 135 l22 20 M621 135 l-22 20" stroke="#fff" stroke-width="5" stroke-linecap="round"/><path d="M700 90 l0 30 M685 105 l30 0 M689 95 l22 20 M711 95 l-22 20" stroke="#fff" stroke-width="5" stroke-linecap="round"/></svg>