<svg xmlns="http://www.w3.org/2000/svg" viewBox="0 0 800 600" width="800" height="600" role="img" aria-hidden="true"><rect width="800" height="600" fill="#d9a16a"/><defs><pattern id="p" width="28" height="28" patternUnits="userSpaceOnUse"><circle cx="4" cy="4" r="2" fill="#7a3a0a" opacity="0.07"/></pattern></defs><rect width="100%" height="100%" fill="url(#p)"/><ellipse cx="400" cy="527.8" rx="215" ry="34.4" fill="#000" opacity="0.14"/><circle cx="400" cy="330" r="215" fill="#f6ecd9"/><circle cx="400" cy="330" r="172" fill="#f1e7d4"/><ellipse cx="400" cy="330" rx="150" ry="150" fill="#9a4a14"/><ellipse cx="400" cy="325" rx="128" ry="128" fill="#c0701f"/><circle cx="340" cy="290" r="14" fill="#6b3a12" opacity="0.8"/><circle cx="376" cy="290" r="19" fill="#6b3a12" opacity="0.8"/><circle cx="412" cy="290" r="24" fill="#6b3a12" opacity="0.8"/><circle cx="448" cy="290" r="14" fill="#6b3a12" opacity="0.8"/><circle cx="340" cy="344" r="19" fill="#6b3a12" opacity="0.8"/><circle cx="376" cy="344" r="24" fill="#6b3a12" opacity="0.8"/><circle cx="412" cy="344" r="14" fill="#6b3a12" opacity="0.8"/><g transform="rotate(30 480 280)"><path d="M480 250 Q498 280 480 310 Q462 280 480 250 Z" fill="#2f8a4c"/><path d="M480 253 L480 307" stroke="#fff" stroke-opacity="0.35" stroke-width="1.2"/></g><path d="M400 140 q-14 -22 0 -44 q14 -22 0 -44" stroke="#fff" stroke-opacity="0.5" stroke-width="6" fill="none" stroke-linecap="round"/><path d="M428 140 q-14 -22 0 -44 q14 -22 0 -44" stroke="#fff" stroke-opacity="0.4" stroke-width="6" fill="none" stroke-linecap="round"/><path d="M372 140 q-14 -22 0 -44 q14 -22 0 -44" stroke="#fff" stroke-opacity="0.3" stroke-width="6" fill="none" stroke-linecap="round"/></svg>